<svg width="21" height="20" viewBox="0 0 21 20" fill="none" xmlns="http://www.w3.org/2000/svg">
<g style="mix-blend-mode:multiply" clip-path="url(#clip0_22_2)">
<path d="M0.350639 1.25695C0.350639 0.84069 0.690903 0.5 1.1065 0.5H3.83882C4.17908 0.5 4.48168 0.726699 4.56978 1.05522L7.65513 12.2333H16.0679L18.8634 5.79862H9.5435C9.34336 5.79828 9.15149 5.71847 9.00985 5.57662C8.86821 5.43478 8.78831 5.24244 8.78764 5.04168C8.78764 4.62542 9.1279 4.28473 9.5435 4.28473H20.0214C20.273 4.28473 20.513 4.41089 20.6509 4.62542C20.7894 4.83995 20.815 5.10507 20.7141 5.34458L17.2636 13.2932C17.1372 13.5704 16.8729 13.7472 16.5709 13.7472H7.08824C6.92269 13.7476 6.76158 13.6936 6.62964 13.5933C6.4977 13.493 6.40224 13.352 6.35792 13.192L3.27256 2.01389H1.1065C0.906355 2.01355 0.714488 1.93374 0.572847 1.79189C0.431206 1.65005 0.351314 1.45771 0.350639 1.25695ZM4.65788 17.3552C4.67274 16.9095 4.85967 16.4871 5.1792 16.1771C5.49873 15.8671 5.92585 15.6938 6.37036 15.6938C6.81488 15.6938 7.242 15.8671 7.56153 16.1771C7.88106 16.4871 8.06799 16.9095 8.08285 17.3552C8.06799 17.8008 7.88106 18.2233 7.56153 18.5333C7.242 18.8432 6.81488 19.0165 6.37036 19.0165C5.92585 19.0165 5.49873 18.8432 5.1792 18.5333C4.85967 18.2233 4.67274 17.8008 4.65788 17.3552ZM15.3752 17.4692C15.3114 16.5355 16.0174 15.703 16.9616 15.6396C17.9064 15.5768 18.7249 16.296 18.7874 17.2297C18.813 17.6959 18.6744 18.1377 18.3725 18.4784C18.2258 18.6498 18.0467 18.7904 17.8457 18.8922C17.6447 18.9939 17.4256 19.0548 17.201 19.0714H17.0753C16.1809 19.0714 15.4378 18.3651 15.3752 17.4692Z" fill="#a1a1a1"/>
</g>
<defs>
<clipPath id="clip0_22_2">
<rect width="20.4286" height="18.5714" fill="white" transform="translate(0.350639 0.5)"/>
</clipPath>
</defs>
</svg>
