<svg width="22" height="22" viewBox="0 0 36 34" fill="none" xmlns="http://www.w3.org/2000/svg">
<g style="mix-blend-mode:overlay" clip-path="url(#clip0_91_495)">
<path d="M0 1.34834C0 0.606867 0.599625 0 1.332 0H6.147C6.74663 0 7.27988 0.403817 7.43513 0.98901L12.8723 20.9004H27.6975L32.6239 9.43837H16.2C15.8473 9.43777 15.5092 9.2956 15.2596 9.04293C15.01 8.79026 14.8692 8.44766 14.868 8.09004C14.868 7.34856 15.4676 6.7417 16.2 6.7417H34.6646C35.1079 6.7417 35.5309 6.96642 35.7739 7.34856C36.018 7.73071 36.063 8.20297 35.8853 8.6296L29.8046 22.7883C29.5819 23.2822 29.1161 23.5971 28.584 23.5971H11.8733C11.5815 23.5979 11.2976 23.5016 11.0651 23.3229C10.8326 23.1442 10.6644 22.8931 10.5863 22.6081L5.14913 2.69668H1.332C0.979303 2.69608 0.641188 2.5539 0.391583 2.30123C0.141978 2.04857 0.00118904 1.70597 0 1.34834ZM7.59038 30.0239C7.61656 29.2301 7.94598 28.4776 8.50907 27.9254C9.07216 27.3732 9.82484 27.0646 10.6082 27.0646C11.3915 27.0646 12.1442 27.3732 12.7073 27.9254C13.2704 28.4776 13.5998 29.2301 13.626 30.0239C13.5998 30.8178 13.2704 31.5702 12.7073 32.1224C12.1442 32.6746 11.3915 32.9833 10.6082 32.9833C9.82484 32.9833 9.07216 32.6746 8.50907 32.1224C7.94598 31.5702 7.61656 30.8178 7.59038 30.0239ZM26.4769 30.227C26.3644 28.5638 27.6086 27.0809 29.2725 26.9679C30.9375 26.8561 32.3797 28.1372 32.49 29.8004C32.535 30.6308 32.2909 31.4179 31.7587 32.0248C31.5002 32.33 31.1848 32.5805 30.8305 32.7617C30.4762 32.943 30.0901 33.0515 29.6944 33.0811H29.4727C27.8966 33.0811 26.5871 31.8229 26.4769 30.227Z" fill="#000"/>
</g>
<defs>
<clipPath id="clip0_91_495">
<rect width="36" height="33.0811" fill="white"/>
</clipPath>
</defs>
</svg>
