<svg width="20" height="20" viewBox="0 0 20 20" fill="none" xmlns="http://www.w3.org/2000/svg">
<g style="mix-blend-mode:multiply">
<path fill-rule="evenodd" clip-rule="evenodd" d="M16.2167 3.80677C18.4139 6.00396 18.4139 9.56631 16.2167 11.7635C14.0195 13.9607 10.4572 13.9607 8.26 11.7635C6.06281 9.56631 6.06281 6.00396 8.26 3.80677C10.4572 1.60958 14.0195 1.60958 16.2167 3.80677ZM17.6309 2.39255C20.6092 5.37079 20.6092 10.1995 17.6309 13.1777C14.8083 16.0004 10.3235 16.1478 7.32723 13.6201L1.91514 19.0322C1.52462 19.4228 0.891452 19.4228 0.500928 19.0322C0.110403 18.6417 0.110403 18.0085 0.500927 17.618L5.97732 12.1416C3.903 9.16784 4.19248 5.04586 6.84578 2.39255C9.82402 -0.585687 14.6527 -0.585687 17.6309 2.39255Z" fill="#777"/>
</g>
</svg>
