<svg width="36" height="25" viewBox="0 0 36 25" fill="none" xmlns="http://www.w3.org/2000/svg">
<g style="mix-blend-mode:overlay">
<path fill-rule="evenodd" clip-rule="evenodd" d="M2 0C0.895431 0 0 0.895431 0 2C0 3.10457 0.895431 4 2 4H34C35.1046 4 36 3.10457 36 2C36 0.895431 35.1046 0 34 0H2ZM0 12C0 10.8954 0.895431 10 2 10H34C35.1046 10 36 10.8954 36 12C36 13.1046 35.1046 14 34 14H2C0.895431 14 0 13.1046 0 12ZM0 23C0 21.8954 0.895431 21 2 21H34C35.1046 21 36 21.8954 36 23C36 24.1046 35.1046 25 34 25H2C0.895431 25 0 24.1046 0 23Z" fill="white"/>
</g>
</svg>
